<svg width="854" height="1707" viewBox="0 0 854 1707" fill="none" xmlns="http://www.w3.org/2000/svg">
<g clip-path="url(#clip0_205_2)">
<path d="M400 1.46657C384.533 3.06657 369.867 7.33324 356.4 13.9999L344 20.1332V103.6V186.933L347.733 186C371.867 179.6 414.8 176.267 444.267 178.4C463.067 179.733 492.4 183.733 502.267 186.133L505.333 186.933V103.6V20.2666L495.067 14.9332C481.467 7.9999 470.267 4.26657 454.667 1.99991C441.2 -0.133428 416.4 -0.400095 400 1.46657ZM443.6 30.3999C454.8 36.2666 463.467 46.3999 466.8 57.5999C468.8 64.3999 468.4 78.1332 466 85.4666C462.933 94.5332 451.6 106.667 442.4 110.8C432.133 115.333 416.667 115.2 406.667 110.533C370.4 93.5999 372.8 42.5332 410.533 28.3999C417.867 25.5999 436.533 26.7999 443.6 30.3999Z" fill="white"/>
<path d="M414.533 56.3999C397.733 67.7332 413.333 94.7999 431.466 85.8666C438.4 82.3999 441.733 77.3332 441.733 70.3999C441.733 56.2665 426.4 48.3999 414.533 56.3999Z" fill="white"/>
<path d="M375.333 196.133C346 198.933 292.933 210.267 283.467 215.733C269.2 224.133 270 244.267 284.933 250.933C290.133 253.2 292 253.467 296.533 252.267C299.6 251.467 310.133 248.8 320 246.267C386.4 228.933 472.267 230.533 542 250.267C554.267 253.733 554.533 253.733 560.533 251.467C569.333 248.133 572.667 242.8 572.667 232.4C572.667 225.467 572.133 223.6 569.333 220.667C564.533 215.467 560.533 213.733 543.067 209.2C521.733 203.733 494.133 199.067 469.467 196.667C447.333 194.533 395.733 194.267 375.333 196.133Z" fill="white"/>
<path d="M380 246.933C304.4 253.867 240.533 278.933 204 316C186.267 333.867 176 352.133 171.333 374.667C169.333 384.4 168.533 412.667 170.4 413.733C170.933 414 178 413.467 186 412.533C252.667 404.267 316.8 400.933 406.667 400.8C494.4 400.8 558.933 403.733 650.667 411.867C665.733 413.2 678.4 414 679.067 413.733C680.533 412.933 680.133 382.8 678.533 373.867C668.933 321.467 615.6 278.533 534.8 258C516.533 253.333 487.2 248.533 467.333 246.8C448.533 245.067 398.133 245.2 380 246.933Z" fill="white"/>
<path d="M348.667 414.667C223.2 418.933 138.267 430.667 113.734 447.2C100.4 456.267 96.5335 471.867 104.534 484C109.2 491.067 113.734 493.733 120.667 493.733C128 493.733 134.267 490 139.067 482.933C142.134 478.4 144.134 477.067 149.734 475.467C175.6 468.133 229.334 461.467 296.667 457.333C371.6 452.667 522 453.733 588.667 459.333C635.334 463.333 664.934 467.067 689.6 472.133C707.6 475.733 712.267 477.733 715.2 483.333C721.734 495.333 736.934 497.467 746.267 487.733C751.467 482.267 753.334 477.6 753.334 469.867C753.334 458.267 746.134 449.333 731.334 442.667C704.134 430.267 638 421.067 540.667 416C504.4 414.133 387.867 413.333 348.667 414.667Z" fill="white"/>
<path d="M339.333 464.8C270.4 467.067 211.2 472.933 166.266 482.133L150.666 485.333L143.466 492.667C139.466 496.667 135.6 500 134.8 500C133.733 500 133.333 652.4 133.333 1040.67V1581.2L137.2 1583.2C142.4 1586 147.333 1592.13 152.666 1602.67C157.2 1611.6 157.2 1611.6 168.266 1616.27C225.333 1640.67 295.6 1649.47 433.333 1649.73C476.4 1649.73 509.733 1649.2 522.666 1648.27C579.2 1643.73 617.2 1637.33 658.666 1625.33C666.4 1623.2 674.933 1620.67 677.6 1620C685.066 1617.87 689.866 1613.07 695.2 1602.13C700 1592.4 705.333 1587.2 713.066 1584.8L716 1583.87V1040.67C716 566.267 715.733 497.467 714 496.933C712.933 496.4 710.666 493.867 708.8 490.933C705.6 485.867 705.6 485.733 688.533 482.267C646.8 473.6 615.2 470 551.333 466.533C526.933 465.2 366.8 463.867 339.333 464.8Z" fill="white"/>
<path d="M110.667 1597.07C108.133 1598.4 104.533 1601.6 102.933 1604.13C100.133 1608.13 99.8666 1609.87 100.267 1618C102.533 1652.67 143.067 1676 227.6 1691.2C278.267 1700.4 331.733 1704.93 404 1706.27C532.4 1708.53 648.533 1694.13 702.4 1669.2C729.733 1656.53 745.333 1638.93 745.333 1620.27C745.333 1610.93 742.533 1605.07 736.133 1601.6C723.067 1594.27 708.533 1601.2 706.133 1616C705.467 1620.13 704.267 1622 699.6 1625.07C674.667 1642.27 621.2 1654.8 543.2 1661.87C466.4 1668.93 359.467 1667.87 284 1659.33C202.933 1650.13 142.933 1631.2 139.333 1613.73C138.133 1607.73 134.267 1601.07 130.533 1598.27C125.333 1594.53 116.4 1594 110.667 1597.07Z" fill="white"/>
</g>
<defs>
<clipPath id="clip0_205_2">
<rect width="853.333" height="1706.67" fill="white"/>
</clipPath>
</defs>
</svg>
